<?xml version="1.0" encoding="UTF-8" standalone="no"?>
<!DOCTYPE svg PUBLIC "-//W3C//DTD SVG 1.1//EN"
 "http://www.w3.org/Graphics/SVG/1.1/DTD/svg11.dtd">
<!-- Generated by graphviz version 2.26.3 (20100126.1600)
 -->
<!-- Title: G Pages: 1 -->
<svg width="166pt" height="260pt"
 viewBox="0.00 0.00 166.00 260.00" xmlns="http://www.w3.org/2000/svg" xmlns:xlink="http://www.w3.org/1999/xlink">
<g id="graph1" class="graph" transform="scale(1 1) rotate(0) translate(4 256)">
<title>G</title>
<polygon fill="white" stroke="white" points="-4,5 -4,-256 163,-256 163,5 -4,5"/>
<g id="graph2" class="cluster"><title>cluster_phpkit</title>
<polyline fill="none" stroke="gray" points="20,-8 138,-8 "/>
<path fill="none" stroke="gray" d="M138,-8C144,-8 150,-14 150,-20"/>
<polyline fill="none" stroke="gray" points="150,-20 150,-232 "/>
<path fill="none" stroke="gray" d="M150,-232C150,-238 144,-244 138,-244"/>
<polyline fill="none" stroke="gray" points="138,-244 20,-244 "/>
<path fill="none" stroke="gray" d="M20,-244C14,-244 8,-238 8,-232"/>
<polyline fill="none" stroke="gray" points="8,-232 8,-20 "/>
<path fill="none" stroke="gray" d="M8,-20C8,-14 14,-8 20,-8"/>
<text text-anchor="middle" x="79" y="-230.1" font-family="Times Roman,serif" font-size="11.00" fill="gray">phpkit</text>
</g>
<!-- \\phpkit\\mysql_field -->
<g id="node2" class="node"><title>\\phpkit\\mysql_field</title>
<a xlink:href="mysql_field.html" xlink:title="mysql_field" target="_parent">
<polygon fill="none" stroke="black" points="124,-214 34,-214 34,-178 124,-178 124,-214"/>
<text text-anchor="middle" x="79" y="-193.1" font-family="Courier,monospace" font-size="11.00">mysql_field</text>
</a>
</g>
<!-- \\phpkit\\mysql_connection -->
<g id="node3" class="node"><title>\\phpkit\\mysql_connection</title>
<a xlink:href="mysql_connection.html" xlink:title="mysql_connection" target="_parent">
<polygon fill="none" stroke="black" points="141,-160 17,-160 17,-124 141,-124 141,-160"/>
<text text-anchor="middle" x="79" y="-139.1" font-family="Courier,monospace" font-size="11.00">mysql_connection</text>
</a>
</g>
<!-- \\phpkit\\mysql_table -->
<g id="node4" class="node"><title>\\phpkit\\mysql_table</title>
<a xlink:href="mysql_table.html" xlink:title="mysql_table" target="_parent">
<polygon fill="none" stroke="black" points="124,-106 34,-106 34,-70 124,-70 124,-106"/>
<text text-anchor="middle" x="79" y="-85.1" font-family="Courier,monospace" font-size="11.00">mysql_table</text>
</a>
</g>
<!-- \\phpkit\\mysql_command -->
<g id="node5" class="node"><title>\\phpkit\\mysql_command</title>
<a xlink:href="mysql_command.html" xlink:title="mysql_command" target="_parent">
<polygon fill="none" stroke="black" points="131,-52 27,-52 27,-16 131,-16 131,-52"/>
<text text-anchor="middle" x="79" y="-31.1" font-family="Courier,monospace" font-size="11.00">mysql_command</text>
</a>
</g>
</g>
</svg>
